<?xml version="1.0" encoding="utf-8"?>
<!-- Generator: Adobe Illustrator 27.0.0, SVG Export Plug-In . SVG Version: 6.00 Build 0)  -->
<svg version="1.1" id="Capa_1" xmlns="http://www.w3.org/2000/svg" xmlns:xlink="http://www.w3.org/1999/xlink" x="0px" y="0px"
	 viewBox="0 0 35 35" style="enable-background:new 0 0 35 35;" xml:space="preserve">
<style type="text/css">
	.st0{fill:#1570BF;}
</style>
<path class="st0" d="M8.6,22.8c-0.5-1.5-1.3-2.1-2.6-2c-1.2,0.1-1.9-0.4-1.7-1.8c1.7-0.5,3.2-0.1,4.6,1c1.4,1.2,3,2.2,4.7,3.1
	c-1.3-2.5-2.6-5.1-5.1-6.7c-1.5-0.9-2.3-2.2-2.4-4c0-0.2,0.1-0.5,0.2-1.1c0.6,1,0.9,1.7,1.4,2.2c0.4,0.4,1.1,0.5,1.6,0.8
	c0.2-0.6,0.6-1.2,0.5-1.7c-0.4-1.8-1-3.6-1.5-5.4c1.5-0.5,2,0,2.3,1.7c0.4,2.3,0.9,4.6,1.4,6.9c0.1,0.6,0.4,1.1,0.6,1.6
	c0.2,0,0.4,0,0.6,0c0.1-0.9,0.3-1.8,0.1-2.6c-0.3-1.7,0-3.3,1-5c1.3,1.7,1.5,3.4,1.3,5.2c-0.2,1.7-0.6,3.3-0.5,5
	c0.1,2,0.4,4.2,2.3,6.1c0.1-0.9,0.3-1.5,0.3-2.1c0-3.1,0.2-6.1-0.1-9.2c-0.2-2.1-1.1-4.1-1.8-6.1c-0.7-1.8-0.3-3.5,1.3-4.9
	c2,2.2,0.2,5.6,2.3,7.8c0.2,0,0.4,0,0.6,0c0-1,0.2-2.1,0.1-3.1c-0.2-1.3-0.7-2.5,0.6-3.6c2.4,3.4,2.4,5.6,0.3,9
	c-0.6,1-1,2.1-1.6,3.1c0.2,0.2,0.4,0.3,0.5,0.5c0.5-0.2,1.2-0.3,1.4-0.7c1.2-2,3-3.7,3-6.3c0-0.8,0.8-1.5,1.3-2.2
	c1.2,3.6,0,7.5-2.9,9.6c-1.6,1.2-2.5,2.7-2.7,4.6c-0.1,0.5,0.3,1,0.5,1.6c0.4-0.3,1-0.5,1.2-0.8c2-2.7,3.8-5.4,5.9-8.1
	c0.4-0.6,1.3-0.8,2-1.2c0,0.9,0.3,1.8,0,2.5c-0.3,0.8-1.1,1.4-1.8,2c-0.5,0.5-1.2,0.9-1.7,1.5c-0.2,0.3-0.3,0.8-0.2,1.1
	c0.1,0.2,0.7,0.3,1,0.3c1.1-0.2,2.2-0.6,3.6-0.7c-0.5,0.6-0.9,1.3-1.5,1.7c-1,0.5-2.1,0.7-3.2,1.1c-0.9,0.3-1.8,0.5-2.6,1
	c-1.5,0.9-1.6,1.8-0.3,2.9c0.4,0.3,0.7,0.7,1,1.1c0.8,1.2,0.5,2-0.8,2.1C19.7,31,16.1,31,12.5,31c-0.5,0-1.5-0.9-1.4-1.1
	c0.2-0.9,0.7-1.7,1.2-2.4c0.3-0.4,0.9-0.7,1.3-1.1c-0.5-0.6-1-1.3-1.6-1.6c-0.6-0.3-1.5,0-2.2,0.1c-1.4,0.2-2.7,0.5-3.8-0.7
	c-0.3-0.3-0.3-0.9-0.4-1.3c0.4-0.1,0.7-0.2,1.1-0.2C7.3,22.7,7.8,22.7,8.6,22.8z"/>
</svg>
