<?xml version="1.0" encoding="UTF-8"?>
<svg id="Capa_1" data-name="Capa 1" xmlns="http://www.w3.org/2000/svg" viewBox="0 0 26.2 34.4">
  <defs>
    <style>
      .cls-1 {
        fill: #9e4300;
      }
    </style>
  </defs>
  <path class="cls-1" d="M26.06,22.9c-.6,.07-1.21,.14-1.91,.22-.02-.44-.06-.81-.06-1.19,0-3.45,0-6.89,0-10.34,0-.7,0-1.4-.1-2.09C23.21,3.68,18.16-.08,13.06,0,8.33,.07,3.72,3.42,2.64,8.32c-.29,1.32-.27,2.72-.29,4.09-.04,3.33-.02,6.67,0,10,0,.6-.14,.83-.78,.65-.4-.11-.83-.1-1.26-.15-.06,.29-.18,.54-.3,.78,.24,.16,.47,.33,.68,.51,.18-.05,.37-.07,.6-.03,4.82,.8,8.41,3.34,10.73,7.66,.21,.4,.37,.83,.61,1.35-.46-.02-.76,0-1.03-.05-3.83-.78-6.39-3.03-7.67-6.72-.25-.71-.5-.92-1.31-.88,.13,4.32,5.2,8.75,10.16,8.88,6.39,.16,10.47-4.67,11.07-8.87h0c-1.07,.1-1.06,.11-1.38,1-1.17,3.29-3.44,5.42-6.79,6.4-.56,.16-1.15,.19-1.73,.28-.03-.2-.05-.25-.04-.29,.03-.11,.06-.22,.11-.32,2.27-4.83,6.05-7.65,11.32-8.45,.92-.14,1.01-.21,.73-1.25Zm-13.6,7.23h0c-.29-.38-.58-.77-.88-1.16-1.22-1.61-2.72-2.92-4.46-3.95-.24-.15-.48-.42-.58-.69-.43-1.24-.45-2.5-.1-3.77,.1-.37,.27-.49,.68-.42,3.03,.51,5.45,3.29,5.5,6.36,.02,1.19,0,2.37,0,3.56-.06,.02-.11,.04-.17,.07Zm-3.17-17.34c0-1.68-.13-3.32-.8-4.89-.04-.09-.03-.21-.06-.47,.51,.21,.93,.34,1.3,.54,1.66,.93,2.45,2.44,2.75,4.26,.06,.33,.11,.67,.12,1,.01,.37,.03,.65,.54,.65,.46,0,.56-.17,.65-.61,.23-1.11,.47-2.24,.9-3.28,.51-1.22,1.6-1.91,2.8-2.4,.08-.03,.17-.05,.26-.06,.06,0,.13,.02,.23,.04-.21,.74-.51,1.45-.61,2.19-.16,1.15-.16,2.33-.29,3.49-.22,1.95-2.12,3.51-4.07,3.39-2.05-.13-3.72-1.82-3.72-3.83Zm2.14-5.41c0-.08,.05-.18,.11-.24,.55-.54,1.07-1.46,1.66-1.51,.79-.07,1.32,.88,1.72,1.62,.08,.14,.08,.41-.01,.54-.56,.78-1.15,1.53-1.7,2.25-.56-.73-1.17-1.49-1.75-2.27-.06-.09-.04-.25-.03-.37Zm8.41,17.08c-.07,.19-.24,.4-.41,.5-2.14,1.21-3.86,2.85-5.22,4.88-.05,.07-.12,.14-.18,.19-.03,.02-.08,0-.21,.02h0c-.01-.26-.04-.51-.04-.77,.03-1.17,0-2.34,.12-3.5,.31-2.85,2.65-5.21,5.46-5.65,.38-.06,.53,.07,.62,.41,.36,1.32,.32,2.62-.13,3.91Zm2.41-.75c-.32,.05-.62,.17-.84,.24-.12-1.29-.15-2.53-.38-3.72-.25-1.35-.56-1.47-1.91-1.21-1.98,.38-3.61,1.34-4.85,2.93-.1,.12-.15,.28-.22,.42-.07-.04-.13-.08-.2-.12-.03-.16-.08-.32-.08-.49,0-1.15,0-2.3,0-3.44,0-.35,.07-.56,.48-.67,2.6-.66,4.12-2.59,4.07-5.31-.03-1.88,.32-3.61,1.32-5.21,.37-.59,.09-1.06-.61-.97-.97,.13-1.92,.4-2.79,.6-.76-.73-1.5-1.46-2.28-2.16-.46-.41-1-.44-1.46-.02-.67,.62-1.33,1.25-1.91,1.95-.26,.32-.41,.35-.76,.23-.77-.24-1.54-.5-2.33-.61-.78-.11-1.08,.37-.68,1.03,1.02,1.68,1.31,3.5,1.33,5.43,.02,2.59,1.51,4.42,4.02,5.07,.17,.04,.44,.25,.44,.38,.03,1.39,.02,2.78,.02,4.17-.1,.08-.2,.16-.3,.24-.1-.22-.17-.46-.31-.64-1.45-1.75-3.29-2.74-5.58-2.88-.46-.03-.69,.13-.84,.56-.46,1.29-.67,2.61-.42,3.97,.02,.13,0,.26,0,.39-1.14,.13-1.69-.33-1.69-1.4,0-3.89,0-7.79,0-11.68,.02-4.88,3.79-9.06,8.63-9.59,5.64-.62,10.66,3.71,10.78,9.37,.07,3.49,.02,6.97,.03,10.46,0,.59,0,1.17,.04,1.75,.03,.53-.15,.85-.7,.94Z"/>
</svg>