<?xml version="1.0" encoding="UTF-8"?>
<svg id="Capa_1" data-name="Capa 1" xmlns="http://www.w3.org/2000/svg" viewBox="0 0 35 35.64">
  <defs>
    <style>
      .cls-1 {
        fill: #004987;
        stroke-width: 0px;
      }
    </style>
  </defs>
  <path class="cls-1" d="M13.37,17.34c.22-4.57.66-7.21,1.32-7.86.87.86,1.28,1.93,1.39,3.12.14,1.44.22,2.88.33,4.36.58.03,1.17.05,1.76.11,2.08.18,4.12.51,6.02,1.44.89.44,1.7,1,2.24,1.86.82,1.31.7,2.79-.32,3.98-.23.27-.48.54-.77.75-.64.45-1.71.29-2.35-.34.34-.4.68-.8,1.02-1.21.69-.84.58-.84-.24-1.34-1.13-.7-2.4-1.09-3.69-1.33-.99-.18-1.99-.26-2.99-.38h-.22c-.55.05-.62.12-.62.67,0,2.92.02,5.85.02,8.77,0,.26.1.4.3.54.75.51,1.6.68,2.48.72,2.28.1,4.53-.08,6.7-.82,1.76-.6,3.34-1.48,4.46-3.02.94-1.3,1.4-2.76,1.46-4.36.11-2.98-.85-5.62-2.52-8.03-2.35-3.4-5.52-5.88-9.07-7.93-2.91-1.68-6-2.93-9.28-3.68-1.74-.4-3.52-.53-5.3-.58-1.27-.03-2.52.03-3.72.47-.21.08-.39.26-.58.4.19.13.36.29.57.39.19.09.43.08.6.19.14.09.28.26.31.42.04.22-.11.38-.35.37-.58-.03-1.17-.04-1.74-.13C.09,4.78-.03,4.55,0,4.06.1,2.43,1.1,1.49,2.49.87,3.74.31,5.09.12,6.45.04c2.28-.13,4.52.08,6.72.71,3.27.93,6.4,2.15,9.26,4.02,3.02,1.98,5.76,4.26,8.07,7.02,1.95,2.35,3.54,4.92,4.18,7.94.71,3.35.28,6.53-1.78,9.36-1.67,2.29-3.94,3.73-6.64,4.56-1.52.47-3.09.72-4.67.69-1.19-.02-2.37-.23-3.56-.37-.54-.07-1.07-.18-1.65-.28-.13.54-.26,1.05-.36,1.57-.04.22-.14.34-.35.35-.55.02-1.11.04-1.66.03-.08,0-.19-.12-.22-.21-.21-.71-.41-1.42-.61-2.13-.07-.27-.09-.56-.17-.83-.05-.16-.13-.35-.26-.45-1.38-1.15-2.81-2.26-4.15-3.45s-2.41-2.61-3.21-4.21c-.82-1.66-.54-2.76.86-3.98,1.53-1.33,3.36-2.04,5.28-2.57.61-.17,1.22-.32,1.84-.47ZM13.24,20.63c-.27.01-.49,0-.71.03-.81.11-1.62.23-2.44.34-1.17.16-2.33.4-3.41.9-.89.42-1.13,1.14-.61,1.98.3.48.66.93,1.04,1.35,1.28,1.39,2.63,2.71,4.41,3.48.44.19.89.35,1.39.54.11-2.9.21-5.73.32-8.62h0Z"/>
</svg>