<?xml version="1.0" encoding="UTF-8"?>
<svg id="Capa_2" data-name="Capa 2" xmlns="http://www.w3.org/2000/svg" viewBox="0 0 283.64 118.34">
  <defs>
    <style>
      .cls-1 {
        fill: #fff;
      }
    </style>
  </defs>
  <path class="cls-1" d="M283.64,61.33c-1.29,4.43-2.67,8.78-5.87,12.35-4.29,4.78-9.57,7.77-15.85,8.91-2.05,.37-2.93,1.37-3.42,3.31-2.29,9.16-3.32,18.46-3.58,27.87-.12,4.21-1.86,5.44-5.8,3.98-3.46-1.28-5.46-4.04-5.42-7.85,.09-9.19,1.87-18.11,4.69-26.82,.67-2.07,.74-3.4-1.28-4.9-4.07-3.03-4.64-7.66-4.15-12.23,.8-7.51,5.32-13.2,10.1-18.64,1.39-1.58,2.97-3.02,4.57-4.4,.83-.71,1.95-1.25,3.05-.49,1.08,.75,.97,1.97,.72,3.03-.75,3.13-2.73,5.61-4.61,8.11-2.13,2.85-3.76,5.9-4.44,9.41-.39,2.02-.41,4,.7,6.04,1.19-.46,1.29-1.56,1.73-2.39,3.76-7.15,8.08-13.86,14.91-18.54,.91-.62,1.88-1.18,2.9-1.58,4.99-1.96,8.03-.45,11.03,5.43v9.4Zm-4.56-5.21c-.03-.95-.16-1.88-1.18-2.29-.96-.39-1.83-.05-2.54,.62-5.18,4.89-8.67,10.9-11.49,17.35-.18,.4-.38,.92,.05,1.28,.41,.34,.87,.07,1.29-.11,1.95-.83,3.87-1.77,5.52-3.1,4.43-3.57,7.78-7.82,8.34-13.75Z"/>
  <path class="cls-1" d="M55.54,66.49c0,3.32,.06,6.63-.02,9.95-.04,1.7,.61,2.55,2.3,2.77,10.03,1.28,20.07,1.99,29.9-1.09,14.09-4.42,18.81-16.9,11.46-29.79-6-10.52-14.81-18.29-24.72-24.89-12.44-8.28-25.94-14.11-40.91-15.86-7.88-.92-15.83-.83-23.73,.27-.63,.09-1.26,.3-1.87,.5-.61,.21-1.35,.44-1.24,1.25,.09,.63,.77,.7,1.32,.77,1.11,.15,2.43,.22,2.31,1.76-.12,1.58-1.43,2.01-2.79,2.17-3.14,.37-6.5-1.63-7.3-4.32-.83-2.76,.44-5.1,3.87-6.73C9.31,.78,14.97,.19,20.57,.05c25.23-.63,48.69,5.27,69.53,19.88,10.85,7.61,19.71,16.98,23.86,29.95,4.23,13.21-1.15,26.31-13.38,32.89-6.37,3.42-13.26,5-20.39,5.67-7.48,.71-14.92,.39-22.26-1.31-1.72-.4-2.4,.15-2.48,1.85-.04,.81-.25,1.65-.55,2.41-.77,1.97-2.17,3.16-4.4,3.16-2.35,0-4.1-.94-5.05-3.15-.68-1.58-.67-3.26-.52-4.9,.21-2.28-.81-3.48-2.8-4.47-7.02-3.51-13.97-7.16-19.56-12.85-.84-.85-1.63-1.76-2.31-2.74-4.33-6.27-3.23-12.42,3.05-16.74,4.75-3.27,10.24-4.57,15.82-5.5,5.74-.95,5.75-.91,5.75-6.62,0-3.59-.13-7.2,1.39-10.59,.79-1.77,1.85-3.24,4.03-3.25,2.22,0,3.22,1.56,3.99,3.3,.79,1.79,1.19,3.68,1.2,5.64,.01,2.49,.16,4.98-.02,7.46-.19,2.63,.74,3.55,3.43,3.51,6.96-.11,13.83,.72,20.37,3.25,4.07,1.57,7.64,3.87,9.01,8.33,.87,2.83,.99,5.8-1.36,8.01-2.25,2.11-5.08,2.48-8.02,1.44-.86-.3-1.91-.62-1.85-1.75,.06-1.11,1.17-.96,1.92-1.17,1.1-.3,2.16-.67,2.37-1.99,.22-1.38-.57-2.27-1.61-2.97-1.57-1.05-3.39-1.45-5.19-1.83-5.44-1.18-10.96-1.42-16.51-1.38-1.96,.01-2.58,.88-2.54,2.7,.07,3.41,.02,6.82,.02,10.22Zm-10.65-1.92c0-2.85,0-5.7,0-8.54,0-1.34-.33-2.38-1.95-2.41-5.72-.12-11.43-.02-16.9,1.95-4.15,1.5-4.7,4.04-1.56,7.23,5.28,5.36,12.03,8.37,18.71,11.47,1.56,.72,1.71-.27,1.71-1.43,0-2.76,0-5.51,0-8.27Z"/>
  <path class="cls-1" d="M144.1,63.48c5.11,.21,10.08,1.09,14.75,3.24,.99,.46,2.2,.87,2.16,2.23-.04,1.48-1.13,2.27-2.4,2.73-3.97,1.46-7.8,.85-11.54-.85-1.84-.84-3.57-1.93-5.58-2.39-1.38-.32-2.9-.78-3.61,.89-.71,1.68,.51,2.83,1.77,3.63,2.3,1.45,4.95,2.05,7.61,2.37,4.58,.55,9.19,.98,13.66-.73,2.26-.87,4.07-2.13,4.2-4.89,.14-2.84-1.62-4.13-3.89-5.05-4.42-1.78-9.09-2.36-13.79-2.68-2.87-.2-5.7-.59-8.4-1.56-2.71-.98-5.05-2.55-5.4-5.7-.36-3.26,.94-5.96,3.52-7.97,1.99-1.55,4.29-2.53,6.76-3.04,6.95-1.44,13.92-1.2,20.87,.01,1.73,.3,3.39,.92,4.82,1.99,1.34,1,2.19,2.25,1.69,4.04-.49,1.74-1.78,2.52-3.45,2.74-2.97,.38-5.88-.3-8.8-.71-4.78-.68-9.57-.37-14.36-.25-.63,.02-1.27,.22-1.88,.41-.88,.28-1.93,.54-1.81,1.73,.11,1.16,1.22,1.32,2.1,1.41,4.4,.45,8.81,.8,13.21,1.23,2.67,.26,5.28,.84,7.84,1.65,4.41,1.38,7.5,4.06,8.04,8.84,.56,4.99-.84,9.45-5.11,12.38-6.55,4.51-13.87,4.44-21.28,2.72-2.88-.67-5.62-1.74-8-3.62-3.58-2.81-4.98-6.28-3.8-9.83,1.05-3.15,3.93-4.84,8.44-4.95,.55-.01,1.11,0,1.66,0Z"/>
  <path class="cls-1" d="M184.47,59.64c-.78,1.95-1.03,3.74-1.02,5.57,.02,3.59-.02,7.19-.58,10.74-.23,1.45-.52,2.91-.99,4.29-.46,1.35-1.36,2.5-2.97,2.5-1.49,0-2.3-1.09-2.82-2.32-.42-1.01-.86-2.09-.92-3.16-.52-8.91,.1-17.69,3.63-26.02,.95-2.24,1.8-5.09,4.7-5.26,2.91-.17,4,2.64,5.29,4.7,3.43,5.49,6.03,11.39,8.43,17.38,.32,.79,.38,2.14,1.54,1.95,1-.17,1.03-1.45,1.09-2.33,.5-7.07-.55-13.95-2.53-20.72-.57-1.94-1.07-3.91-1.56-5.87-.19-.74-.15-1.49,.57-1.99,.75-.51,1.42-.12,2.04,.29,2.62,1.71,4.5,4.1,5.97,6.79,5.05,9.19,5.15,18.82,2.34,28.65-.25,.87-.68,1.72-1.15,2.51-3.62,6.13-8.91,6.26-12.72,.3-3.01-4.71-4.55-10.05-6.56-15.19-.36-.92-.48-1.98-1.77-2.8Z"/>
  <path class="cls-1" d="M236.07,51.99c-2.21,0-4.43-.02-6.64,0-2.04,.02-3.12,1.29-3.16,3.13-.04,2.14,1.82,1.63,3.1,1.69,1.84,.08,3.69,.04,5.53,.03,2.09,0,3.75,.65,3.79,3.03,.04,2.33-1.42,3.57-3.65,3.67-2.85,.13-5.71,.06-8.57,.08-3.87,.03-6.99,4.29-5.87,7.98,.47,1.55,1.6,1.28,2.68,.99,2.93-.8,5.85-1.68,8.78-2.48,1.15-.31,2.33-.58,3.52-.7,1.51-.16,2.72,.48,3.4,1.86,.67,1.36,.56,2.74-.5,3.85-.82,.86-1.75,1.64-2.75,2.29-4.39,2.85-9.24,4.6-14.4,5.36-6.61,.97-11.22-3.81-9.96-10.33,.43-2.25,1.15-4.45,1.84-6.64,.51-1.61,.83-3.19,.37-4.87-.53-1.94,.22-3.39,2.09-3.88,3.14-.82,2.95-3.44,3.32-5.7,.2-1.2-1.03-1.3-1.89-1.6-1.9-.68-4.39-1.19-3.99-3.77,.41-2.62,3.01-2.24,4.97-2.35,6.9-.39,13.79-.79,20.69-1.06,4.13-.16,6.35,1.73,7.13,5.76,.41,2.13-.42,3.48-2.64,3.59-2.39,.11-4.79,.03-7.19,.03v.06Z"/>
  <path class="cls-1" d="M130.79,35.76c-2.37-.46-5.24-.05-7.81-1.28-1.55-.74-2.63-.43-3.49,1-.67,1.11-1.58,1.87-2.97,1.34-1.29-.49-1.38-1.67-1.27-2.78,.22-2.22-.54-4.06-1.6-5.99-2.86-5.19-1.32-11.47,3.84-16.14,5.15-4.66,11.3-6.48,18.15-5.8,2.52,.25,4.9,1.11,6.34,3.45,.66,1.08,1.57,1.39,2.76,1.45,3.47,.17,6.65,1.08,8.24,4.54,1.64,3.56,.73,6.95-1.58,9.84-5.16,6.47-11.94,9.99-20.61,10.37Zm-1.31-6.5c5.06-.29,9.8-1.97,13.62-5.87,1.73-1.77,2.99-3.85,1.5-6.15-1.39-2.13-3.77-1.94-6.03-1.32-4.94,1.35-8.58,4.55-11.78,8.32-.98,1.16-2.6,2.57-1.93,3.98,.69,1.47,2.81,.86,4.63,1.04Zm-10.9-4.66c2.85-4.03,6.33-7.41,10.7-10.63-6.45,.86-10.13,4.59-10.7,10.63Z"/>
  <path class="cls-1" d="M130.27,68.79c-.13,3.4,.19,6.8-.48,10.18-.4,2.04-.97,3.86-3.47,3.89-2.48,.03-4.57-.76-5.42-3.37-.31-.95-.55-1.98-.57-2.97-.24-9.11-.21-18.21,1.5-27.2,.39-2.02,.63-4.76,3.24-4.82,2.75-.07,3.21,2.69,3.67,4.82,1.4,6.41,1.46,12.95,1.53,19.48Z"/>
</svg>