<?xml version="1.0" encoding="UTF-8"?>
<svg id="Capa_1" data-name="Capa 1" xmlns="http://www.w3.org/2000/svg" viewBox="0 0 521.97 327.25">
  <defs>
    <style>
      .cls-1 {
        fill: #fff;
      }
    </style>
  </defs>
  <path class="cls-1" d="M503.31,201.48c-4.77,33.21-37.02,71.34-87.43,70.05-39.23-1.01-79.2-36-80.25-70.08,6.36-.25,8.38,1.37,10.34,6.98,10.13,29.13,30.33,46.88,60.59,53.05,2.2,.45,4.53,.25,8.17,.41-1.87-4.16-3.14-7.54-4.83-10.69-18.26-34.09-46.6-54.11-84.68-60.45-4.76-.79-8.11-.23-11.08,5.03-3.08,5.46-8.2,10.27-13.44,13.89-8.94,6.17-21.03,.67-22.13-10.19-.81-8.01,.27-16.25,.95-24.36,.3-3.61,2.42-6.55,6.7-6,4.3,.55,4.38,4.05,4.35,7.34-.06,6.04-.73,12.14-.11,18.1,.32,3.1,2.22,7.48,4.6,8.5,2.39,1.02,7.1-.5,9.32-2.52,5.83-5.32,11.25-11.25,13.15-19.75,3.39,.37,6.83,.28,9.98,1.18,5.04,1.45,6.2-.42,6.18-5.13-.13-26.31-.27-52.62,.03-78.93,.12-10.78-.02-21.84,2.27-32.26C344.46,26.97,380.87,.57,418.21,0c40.28-.61,80.16,29.01,86.26,75.07,.72,5.44,.75,11,.76,16.5,.07,27.2,.02,54.4,.06,81.6,0,2.96,.31,5.92,.5,9.36,5.46-.62,10.3-1.17,15.05-1.71,2.22,8.15,1.56,8.75-5.73,9.84-41.63,6.28-71.47,28.52-89.36,66.68-.37,.8-.61,1.66-.83,2.52-.08,.31,.07,.69,.28,2.25,4.57-.71,9.27-.94,13.66-2.22,26.43-7.66,44.33-24.55,53.58-50.49,2.53-7.08,2.45-7.14,10.86-7.94Zm-60.09-148.25c6.93-1.54,14.42-3.74,22.06-4.73,5.55-.72,7.7,2.98,4.8,7.63-7.88,12.65-10.63,26.31-10.39,41.14,.35,21.54-11.65,36.76-32.17,41.96-3.27,.83-3.8,2.51-3.79,5.26,.04,9.06-.02,18.13,.03,27.19,0,1.28,.43,2.55,.66,3.83,.53,.31,1.06,.63,1.59,.94,.58-1.1,1.01-2.32,1.77-3.28,9.86-12.53,22.68-20.11,38.33-23.12,10.61-2.05,13.06-1.09,15.05,9.59,1.76,9.44,2.01,19.16,2.98,29.38,1.7-.49,4.12-1.45,6.62-1.86,4.39-.72,5.78-3.27,5.55-7.43-.26-4.61-.27-9.23-.28-13.85-.05-27.53,.36-55.07-.21-82.59-.91-44.68-40.55-78.87-85.1-74-38.21,4.17-67.97,37.13-68.14,75.69-.13,30.75-.04,61.49-.06,92.24,0,8.43,4.31,12.12,13.31,11.07,0-1,.16-2.06-.02-3.07-1.94-10.79-.28-21.14,3.34-31.36,1.22-3.43,3.02-4.68,6.66-4.45,18.05,1.17,32.63,8.94,44.06,22.77,1.16,1.41,1.66,3.37,2.47,5.07,.79-.63,1.59-1.26,2.38-1.89,0-10.97,.1-21.95-.16-32.91-.02-1.06-2.09-2.65-3.46-3-19.82-5.13-31.57-19.6-31.72-40.01-.12-15.17-2.39-29.61-10.47-42.84-3.18-5.21-.8-8.97,5.33-8.13,6.24,.86,12.35,2.89,18.39,4.82,2.77,.88,3.96,.65,6-1.85,4.53-5.54,9.79-10.54,15.07-15.41,3.62-3.34,7.94-3.11,11.55,.14,6.11,5.5,11.94,11.31,17.97,17.06Zm-61.53,5.4c.26,2.12,.18,3.03,.49,3.77,5.28,12.35,6.26,25.36,6.29,38.6,.03,15.88,13.18,29.24,29.38,30.26,15.38,.96,30.37-11.32,32.13-26.75,1.05-9.14,1.02-18.42,2.3-27.52,.82-5.82,3.15-11.43,4.84-17.27-.81-.16-1.31-.36-1.8-.33-.7,.06-1.41,.2-2.06,.47-9.47,3.88-18.09,9.32-22.09,18.94-3.42,8.22-5.29,17.15-7.1,25.93-.72,3.5-1.53,4.81-5.17,4.84-3.99,.03-4.13-2.17-4.24-5.1-.09-2.65-.52-5.29-.96-7.92-2.37-14.35-8.62-26.26-21.75-33.6-2.95-1.65-6.27-2.65-10.26-4.3Zm42.39,178.59c1.01-.07,1.45,.04,1.67-.14,.54-.44,1.06-.96,1.45-1.53,10.8-16.01,24.39-29,41.25-38.55,1.4-.79,2.74-2.4,3.27-3.91,3.51-10.15,3.84-20.46,1.02-30.87-.73-2.7-1.86-3.72-4.88-3.26-22.17,3.42-40.64,22.08-43.11,44.57-1,9.13-.72,18.41-.96,27.62-.05,2.01,.18,4.04,.29,6.06Zm-10.62,.68c.45-.17,.9-.35,1.35-.52,0-9.37,.12-18.74-.02-28.11-.37-24.23-19.54-46.21-43.43-50.21-3.19-.54-4.53,.36-5.34,3.32-2.74,10.03-2.6,20,.79,29.78,.73,2.1,2.61,4.26,4.54,5.41,13.74,8.17,25.53,18.48,35.2,31.21,2.31,3.04,4.6,6.09,6.91,9.13Zm5.96-158.77c4.33-5.68,9-11.62,13.39-17.75,.7-.97,.68-3.13,.08-4.24-3.14-5.85-7.31-13.31-13.55-12.77-4.7,.41-8.82,7.69-13.14,11.96-.47,.46-.78,1.25-.84,1.92-.09,.98-.26,2.25,.25,2.93,4.61,6.16,9.36,12.21,13.81,17.95Z"/>
  <path class="cls-1" d="M12.97,153.05c2.12-1.79,2.94-2.4,3.68-3.11,25.09-24.38,49.98-48.98,75.32-73.1,20.97-19.96,42.41-39.43,63.83-58.91,3.16-2.88,7.22-4.96,11.18-6.67,1.32-.57,3.64,1.16,5.51,1.84-.73,1.65-1.05,3.74-2.26,4.88-16.14,15.26-32.55,30.22-48.6,45.57-30.41,29.09-60.81,58.2-90.78,87.75-5.95,5.87-10.44,13.45-14.65,20.79-3.8,6.64-2.31,12.39,4.48,15.81,10.56,5.32,21.44,10.32,32.67,13.94,20.95,6.74,42.26,12.38,63.41,18.49,.85,.25,1.91,.38,2.45,.96,1.33,1.44,2.41,3.11,3.6,4.68-2,.63-4.25,2.22-5.95,1.76-26.38-7.09-52.72-14.31-78.97-21.85-6.79-1.95-13.3-4.95-19.84-7.7-3.89-1.64-5.76-.57-5.94,3.56-.1,2.13-.06,4.26-.08,6.39-.23,35.36-.44,70.72-.69,106.08-.02,2.31-.36,4.61-.38,6.92-.04,3.44-1.08,6.11-5.01,6.13-4.16,.03-4.68-3.19-4.88-6.31-.43-6.56-1.01-13.13-1.01-19.7C-.02,214.34,0,127.43,.04,40.53c0-4.79,.47-9.58,.73-14.37,.18-3.32,1.81-5.94,5.18-5.22,1.99,.43,4.29,2.78,5.03,4.79,1,2.72,.83,5.94,.84,8.95,.12,35.72,.16,71.45,.28,107.17,.01,3.29,.49,6.58,.86,11.21Z"/>
  <path class="cls-1" d="M275.91,187.83c.16,.79,.65,1.69,.43,2.35-3.2,9.68-7.18,18.95-14.7,26.2-10.23,9.86-24.82,7.87-32.11-4.51-6.05-10.29-7.21-21.88-7.58-33.41-.7-22-1.47-44.04-.95-66.03,.47-19.66,2.18-39.38,8.03-58.35,1.65-5.35,4.06-10.66,7.1-15.35,4.63-7.14,12.79-7.3,17.59-.27,2.7,3.96,4.61,8.89,5.41,13.63,3.25,19.24-.24,38.19-3.3,57.13-3.56,22.04-10.44,43.03-19.28,63.49-6.17,14.27-1.43,27.5,5.54,40.01,2.45,4.39,7,4.36,11.26,1.91,8.4-4.84,12.92-12.93,17.49-20.99,1.18-2.09,2.44-4.13,3.66-6.19,.47,.13,.93,.25,1.4,.38Zm-43.01-27.02c.39,.02,.78,.04,1.18,.07,.44-.94,.96-1.85,1.31-2.82,10.5-29.99,16.61-60.87,18.01-92.59,.28-6.4-1.57-12.92-2.81-19.32-.28-1.44-2.1-2.58-3.2-3.86-1.39,1.21-3.42,2.17-4.04,3.69-1.45,3.58-2.67,7.37-3.21,11.18-4.69,32.87-7.29,65.91-7.55,99.12-.01,1.51,.21,3.02,.33,4.53Z"/>
  <path class="cls-1" d="M219.15,185.67c-1.26,15.03-19.51,28.94-33.85,25.81-5.23-1.14-7.05-3.29-11.4-13.94-1.84,2.54-3.44,4.67-4.95,6.85-4.79,6.89-10.77,11.75-19.66,11.81-9.88,.07-15.65-5.59-15.71-15.42-.09-15.59,13.91-30.92,29.42-32.09,2.1-.16,4.44-.33,6.31,.42,4.34,1.73,7.85,1.91,12.07-1.1,3.69-2.64,7.36-.03,7.35,4.83,0,3.87-1.02,7.72-1.31,11.6-.27,3.69-.76,7.52-.1,11.09,1.57,8.5,8.04,11.11,14.86,5.81,4.58-3.56,8.48-8.04,12.44-12.34,1.28-1.38,1.8-3.47,2.67-5.23,.62,.62,1.24,1.25,1.85,1.87Zm-72.74,16.4c.69,1.19,1.4,4.03,3.14,4.99,1.51,.83,5.11,.29,6.19-.99,5.42-6.42,10.5-13.15,15.27-20.07,1.34-1.95,2.39-6.45,1.55-7.09-2.31-1.75-5.67-2.47-8.7-2.79-1.7-.18-3.76,.94-5.33,1.97-8.15,5.34-10.62,13.75-12.13,23.98Z"/>
  <path class="cls-1" d="M282.05,151.19c3.22-2.85,5.2-4.95,7.58-6.39,.45-.27,3.74,2.94,3.62,3.11-1.75,2.58-3.79,5-6.03,7.16-.18,.17-2.43-1.81-5.16-3.88Z"/>
</svg>